<?xml version="1.0" encoding="UTF-8" standalone="no"?>
<svg
   xmlns:figma="http://www.figma.com/figma/ns"
   xmlns:dc="http://purl.org/dc/elements/1.1/"
   xmlns:cc="http://creativecommons.org/ns#"
   xmlns:rdf="http://www.w3.org/1999/02/22-rdf-syntax-ns#"
   xmlns:svg="http://www.w3.org/2000/svg"
   xmlns="http://www.w3.org/2000/svg"
   xmlns:xlink="http://www.w3.org/1999/xlink"
   xmlns:sodipodi="http://sodipodi.sourceforge.net/DTD/sodipodi-0.dtd"
   xmlns:inkscape="http://www.inkscape.org/namespaces/inkscape"
   width="190"
   height="190"
   viewBox="0 0 190 190"
   version="1.1"
   id="svg41"
   sodipodi:docname="icon.svg"
   inkscape:version="0.92.1 r15371">
  <metadata
     id="metadata45">
    <rdf:RDF>
      <cc:Work
         rdf:about="">
        <dc:format>image/svg+xml</dc:format>
        <dc:type
           rdf:resource="http://purl.org/dc/dcmitype/StillImage" />
      </cc:Work>
    </rdf:RDF>
  </metadata>
  <sodipodi:namedview
     pagecolor="#ffffff"
     bordercolor="#666666"
     borderopacity="1"
     objecttolerance="10"
     gridtolerance="10"
     guidetolerance="10"
     inkscape:pageopacity="0"
     inkscape:pageshadow="2"
     inkscape:window-width="1600"
     inkscape:window-height="837"
     id="namedview43"
     showgrid="false"
     inkscape:zoom="1.2421053"
     inkscape:cx="95"
     inkscape:cy="95"
     inkscape:window-x="-8"
     inkscape:window-y="-8"
     inkscape:window-maximized="1"
     inkscape:current-layer="Canvas" />
  <title
     id="title2">icon</title>
  <desc
     id="desc4">Created using Figma</desc>
  <g
     id="Canvas"
     transform="translate(-61 -613)"
     figma:type="canvas"
     style="fill:#000080">
    <g
       figma:type="ellipse"
       style="mix-blend-mode:normal;fill:#000080"
       id="Ellipse 2">
      <mask
         id="mask0_outline_ins">
        <use
           height="100%"
           width="100%"
           y="0"
           x="0"
           style="fill:#ffffff"
           id="use6"
           transform="translate(61,613)"
           xlink:href="#path0_fill" />
      </mask>
      <g
         style="fill:#000080"
         id="g11"
         mask="url(#mask0_outline_ins)">
        <use
           height="100%"
           width="100%"
           y="0"
           x="0"
           id="use9"
           style="mix-blend-mode:normal;fill:#000080"
           transform="translate(61,613)"
           xlink:href="#path1_stroke_2x" />
      </g>
    </g>
  </g>
  <defs
     id="defs39">
    <path
       id="path0_fill"
       d="M 190 95C 190 147.467 147.467 190 95 190C 42.5329 190 0 147.467 0 95C 0 42.5329 42.5329 0 95 0C 147.467 0 190 42.5329 190 95Z" />
    <path
       id="path1_stroke_2x"
       d="M 188 95C 188 146.362 146.362 188 95 188L 95 192C 148.572 192 192 148.572 192 95L 188 95ZM 95 188C 43.6375 188 2 146.362 2 95L -2 95C -2 148.572 41.4284 192 95 192L 95 188ZM 2 95C 2 43.6375 43.6375 2 95 2L 95 -2C 41.4284 -2 -2 41.4284 -2 95L 2 95ZM 95 2C 146.362 2 188 43.6375 188 95L 192 95C 192 41.4284 148.572 -2 95 -2L 95 2Z" />
    <path
       id="path2_fill"
       d="M 0 3C 0 1.34315 1.34315 0 3 0L 87 0C 88.6569 0 90 1.34315 90 3L 90 87C 90 88.6569 88.6569 90 87 90L 3 90C 1.34315 90 0 88.6569 0 87L 0 3Z" />
    <path
       id="path3_stroke_2x"
       d="M 3 2L 87 2L 87 -2L 3 -2L 3 2ZM 88 3L 88 87L 92 87L 92 3L 88 3ZM 87 88L 3 88L 3 92L 87 92L 87 88ZM 2 87L 2 3L -2 3L -2 87L 2 87ZM 3 -2C 0.238576 -2 -2 0.238576 -2 3L 2 3C 2 2.44772 2.44772 2 3 2L 3 -2ZM 87 2C 87.5523 2 88 2.44772 88 3L 92 3C 92 0.238576 89.7614 -2 87 -2L 87 2ZM 88 87C 88 87.5523 87.5523 88 87 88L 87 92C 89.7614 92 92 89.7614 92 87L 88 87ZM 3 88C 2.44772 88 2 87.5523 2 87L -2 87C -2 89.7614 0.238576 92 3 92L 3 88Z" />
    <path
       id="path4_stroke"
       d="M -0.460815 18.6125C -0.950966 18.867 -1.142 19.4707 -0.887496 19.9608C -0.632995 20.451 -0.0293353 20.642 0.460815 20.3875L -0.460815 18.6125ZM 26 6L 26.515 5.14281C 26.2171 4.96383 25.8476 4.95235 25.5392 5.1125L 26 6ZM 42.8108 16.1L 42.2958 16.9572C 42.627 17.1562 43.0432 17.1466 43.3649 16.9325L 42.8108 16.1ZM 67 0L 67.6842 -0.729321C 67.3455 -1.04707 66.8325 -1.0898 66.4459 -0.832465L 67 0ZM 87.3158 20.4293C 87.7186 20.8072 88.3515 20.787 88.7293 20.3842C 89.1072 19.9814 89.087 19.3485 88.6842 18.9707L 87.3158 20.4293ZM 0.460815 20.3875L 26.4608 6.8875L 25.5392 5.1125L -0.460815 18.6125L 0.460815 20.3875ZM 25.485 6.85719L 42.2958 16.9572L 43.3258 15.2428L 26.515 5.14281L 25.485 6.85719ZM 43.3649 16.9325L 67.5541 0.832465L 66.4459 -0.832465L 42.2567 15.2675L 43.3649 16.9325ZM 66.3158 0.729321L 87.3158 20.4293L 88.6842 18.9707L 67.6842 -0.729321L 66.3158 0.729321Z" />
    <path
       id="path5_stroke"
       d="M 14 7.5C 14 11.0899 11.0899 14 7.5 14L 7.5 16C 12.1944 16 16 12.1944 16 7.5L 14 7.5ZM 7.5 14C 3.91015 14 1 11.0899 1 7.5L -1 7.5C -1 12.1944 2.80558 16 7.5 16L 7.5 14ZM 1 7.5C 1 3.91015 3.91015 1 7.5 1L 7.5 -1C 2.80558 -1 -1 2.80558 -1 7.5L 1 7.5ZM 7.5 1C 11.0899 1 14 3.91015 14 7.5L 16 7.5C 16 2.80558 12.1944 -1 7.5 -1L 7.5 1Z" />
  </defs>
</svg>
